<svg viewBox="6.027027027027026 6.6286249999999995 85.67567567567566 86.13" version="1.1" xmlns="http://www.w3.org/2000/svg" style="max-height: 500px" width="85.67567567567566" height="86.13">
 <path d="m50 10.621c-21.711 0-39.371 17.664-39.371 39.379 0 14.18 7.6328 27.238 19.949 34.25v0.023438l0.51953 0.28516c5.7734 3.1523 12.309 4.8203 18.902 4.8203 1.6523 0 3.2969-0.10547 4.9297-0.30859 3.2617-0.41016 6.4648-1.2266 9.5156-2.4297 0.003907-0.003906 0.011719-0.003906 0.015626-0.007813 1.3594-0.53516 2.6875-1.1602 3.9805-1.8438 0.15234-0.082031 0.30859-0.15234 0.46094-0.23437l0.51562-0.28125v-0.023438c2.4648-1.4023 4.7383-3.0547 6.8047-4.9023 0.035156-0.03125 0.070313-0.054687 0.10156-0.089844 8.1953-7.3906 13.047-17.965 13.047-29.258 0-21.715-17.66-39.379-39.371-39.379zm-24.453 67.633 0.19141-4.3125c0.12109-2.7109 1.9648-5.0078 4.5859-5.707l3.1289-0.83203-0.13281 0.19922c-1.793 2.6641-2.7422 5.7656-2.7422 8.9688v5.3516c-1.7891-1.0938-3.4727-2.3164-5.0312-3.668zm24.566-59.754 18.578 5.5742-18.711 6.2148-12.309-3.7852-0.007813 0.003906-6.2617-1.9258zm-0.53125 13.758c0.26562 0.089844 0.54688 0.089844 0.8125 0l11.633-3.8633-0.015625 9.3203-11.961 1.3672-11.523-1.3633 0.003906-8.8555zm-12.113 7.3516 12.578 1.4883 13.02-1.4883h2.082c0.79687 0 1.543 0.30859 2.1016 0.87109s0.86719 1.3047 0.86719 2.1016v18.812c0 1.6367-1.332 2.9688-2.9688 2.9688h-1.0078l-28.27-0.003906h-1.0195c-1.6445 0-2.9805-1.332-2.9805-2.9688v-18.812c0-1.6367 1.3359-2.9688 2.9805-2.9688zm32.652 6.1094h2c1.1016 0 2 0.89844 2 2v7c0 1.1016-0.89844 2-2 2h-2zm-22.43 41.59c-0.25781-0.015625-0.51172-0.050782-0.76953-0.070313-0.50781-0.042969-1.0195-0.082031-1.5234-0.14453-0.30859-0.039062-0.61328-0.09375-0.91797-0.14062-0.45312-0.066406-0.90625-0.12891-1.3555-0.21484-0.32812-0.0625-0.64844-0.14062-0.97656-0.21094-0.42578-0.089844-0.85156-0.17578-1.2695-0.28125-0.33594-0.085938-0.66406-0.18359-0.99609-0.27734-0.40625-0.11328-0.8125-0.22266-1.2109-0.35156-0.33984-0.10547-0.67188-0.23047-1.0078-0.34766-0.38672-0.13672-0.77734-0.26562-1.1602-0.41406-0.33594-0.12891-0.66406-0.27344-0.99609-0.41406-0.375-0.15625-0.75391-0.3125-1.125-0.48047-0.32812-0.15234-0.64844-0.31641-0.97266-0.47656-0.27734-0.13672-0.55469-0.27734-0.82812-0.41797v-6.4961c0-2.8047 0.82812-5.5195 2.3984-7.8477l1.6016-2.3594 13.27 0.039063 13.57-0.039063 1.5938 2.3594c1.5742 2.3242 2.4062 5.0391 2.4062 7.8477v6.4961c-0.27344 0.14453-0.55078 0.28125-0.82422 0.41797-0.32422 0.16016-0.64844 0.32422-0.97656 0.47656-0.37109 0.17187-0.74609 0.32422-1.1211 0.48437-0.33203 0.14063-0.66016 0.28125-0.99219 0.41406-0.38672 0.14844-0.77734 0.28125-1.1641 0.41797-0.33203 0.11719-0.66406 0.23828-1 0.34375-0.40234 0.12891-0.80859 0.23828-1.2148 0.35156-0.33203 0.09375-0.66016 0.19531-0.99609 0.27734-0.42187 0.10547-0.84766 0.19141-1.2734 0.28125-0.32422 0.070312-0.64453 0.14844-0.97266 0.21094-0.45312 0.085937-0.90625 0.14844-1.3594 0.21484-0.30469 0.046875-0.60938 0.10156-0.91406 0.14062-0.50781 0.0625-1.0195 0.10156-1.5312 0.14453-0.25391 0.019531-0.50781 0.054687-0.76562 0.070312-0.77344 0.042969-1.5469 0.066406-2.3164 0.066406s-1.5391-0.023437-2.3086-0.070312zm18.977-19.707-0.15625-0.23437 3.2578 0.86719c2.625 0.70312 4.4688 2.9961 4.5898 5.707l0.1875 4.2227c-1.5859 1.3828-3.3008 2.6406-5.1289 3.7539v-5.3516c0.003906-3.207-0.94922-6.3086-2.75-8.9648zm9.8008 8.7617-0.11328-2.5078c-0.16016-3.5898-2.5977-6.625-6.0703-7.5508l-2.5625-0.68359c1.4297-0.875 2.3984-2.4336 2.3984-4.2305v-2.6719h2c2.207 0 4-1.793 4-4v-7c0-2.207-1.793-4-4-4h-2v-1.1406c0-1.3281-0.51562-2.5742-1.4531-3.5117s-2.1875-1.457-3.5156-1.457h-1.1367l0.015625-9.8789 7.418-2.4609h0.003906c0.53906-0.17969 0.89453-0.6875 0.88281-1.2578-0.011719-0.57031-0.39063-1.0547-0.92188-1.207l-20.844-6.25c-0.26953-0.10938-0.57422-0.11719-0.85156-0.023438l-21.047 6.8398c-0.54688 0.17578-0.90625 0.67578-0.90234 1.25 0 0.035156 0.015625 0.070312 0.019531 0.10547-0.003906 0.039063-0.023437 0.070313-0.023437 0.10938v4.25c0 0.011718 0.003906 0.019531 0.007813 0.03125-0.035157 0.027343-0.082032 0.039062-0.11328 0.074218l-3.2578 3.2578c-0.29688 0.29688-0.45703 0.6875-0.45703 1.1094 0 0.41797 0.16406 0.8125 0.45703 1.1055l3.2578 3.2578c0.28906 0.28906 0.67969 0.45312 1.1016 0.45312 0.41797 0 0.8125-0.16406 1.1055-0.45703l3.2578-3.2578c0.29688-0.29688 0.45703-0.6875 0.45703-1.1055 0-0.41797-0.16406-0.8125-0.45703-1.1094l-3.2578-3.2578c-0.03125-0.03125-0.078126-0.042969-0.11328-0.074219 0-0.011719 0.007813-0.019531 0.007813-0.03125v-2.9102l6.7695 2.0781v9.3672l-1.6797-0.003907c-2.7461 0-4.9805 2.2305-4.9805 4.9688v1.1406h-2.3281c-2.207 0-4 1.793-4 4v7c0 2.207 1.793 4 4 4h2.3281v2.6719c0 1.8086 0.98438 3.3789 2.4375 4.25l-2.4961 0.66406c-3.4727 0.92969-5.9102 3.9609-6.0703 7.5508l-0.11719 2.6094c-6.9336-6.9297-10.996-16.398-10.996-26.469 0-20.609 16.766-37.379 37.371-37.379s37.371 16.77 37.371 37.379c0 10.02-4.0234 19.449-10.902 26.363zm-47.707-45.457 2.6445 2.6445-2.6445 2.6445-2.6445-2.6445zm0.77734 14.812v11h-2c-1.1016 0-2-0.89844-2-2v-7c0-1.1016 0.89844-2 2-2zm32.27 34.293v-6.2891c0-1.8516-1.5078-3.3594-3.3594-3.3594l-16.789-0.003906c-1.8516 0-3.3594 1.5078-3.3594 3.3594v6.2891c0 1.8516 1.5078 3.3594 3.3594 3.3594l16.789 0.003906c1.8555 0 3.3594-1.5078 3.3594-3.3594zm-21.508 0v-6.2891c0-0.75 0.60938-1.3594 1.3594-1.3594l16.789-0.003906c0.75 0 1.3594 0.60938 1.3594 1.3594v6.2891c0 0.75-0.60938 1.3594-1.3594 1.3594l-16.789 0.003906c-0.75 0-1.3594-0.60938-1.3594-1.3594zm17.25-4.9219c0 0.55078-0.44922 1-1 1h-13.102c-0.55078 0-1-0.44922-1-1 0-0.55078 0.44922-1 1-1h13.102c0.55078 0 1 0.44922 1 1zm-2.9727 3.5586c0 0.55078-0.44922 1-1 1h-7.1602c-0.55078 0-1-0.44922-1-1 0-0.55078 0.44922-1 1-1h7.1602c0.55469 0 1 0.44922 1 1zm-12-18.906h14.5c4.2734 0 7.75-3.4766 7.75-7.75 0-4.2734-3.4766-7.75-7.75-7.75h-14.5c-4.2734 0-7.75 3.4766-7.75 7.75 0 4.2734 3.4766 7.75 7.75 7.75zm0-13.5h14.5c3.1719 0 5.75 2.5781 5.75 5.75 0 3.1719-2.5781 5.75-5.75 5.75h-14.5c-3.1719 0-5.75-2.5781-5.75-5.75 0-3.1719 2.582-5.75 5.75-5.75zm-0.10938 10c2.3438 0 4.25-1.9062 4.25-4.25s-1.9062-4.25-4.25-4.25-4.25 1.9062-4.25 4.25c0 2.3398 1.9062 4.25 4.25 4.25zm0-6.5c1.2422 0 2.25 1.0078 2.25 2.25 0 1.2422-1.0078 2.25-2.25 2.25s-2.25-1.0078-2.25-2.25c0-1.2422 1.0117-2.25 2.25-2.25zm14.73 6.5c2.3438 0 4.25-1.9062 4.25-4.25s-1.9062-4.25-4.25-4.25-4.25 1.9062-4.25 4.25c0 2.3398 1.9062 4.25 4.25 4.25zm0-6.5c1.2422 0 2.25 1.0078 2.25 2.25 0 1.2422-1.0078 2.25-2.25 2.25-1.2422 0-2.25-1.0078-2.25-2.25 0-1.2422 1.0117-2.25 2.25-2.25z"/>
<text fill="#000000" font-family="Arbeit Regular, Helvetica, Arial-Unicode, Arial, Sans-serif" font-weight="bold" font-size="5.0" y="117.5" x="0.0">Created by Fath Yusuf Iskhaqy</text><text fill="#000000" font-family="Arbeit Regular, Helvetica, Arial-Unicode, Arial, Sans-serif" font-weight="bold" font-size="5.0" y="122.5" x="0.0">from Noun Project</text></svg>