<svg width="28" height="28" viewBox="0 0 28 28" fill="none" xmlns="http://www.w3.org/2000/svg">
<path d="M13.96 0C11.199 0 8.49995 0.821086 6.20424 2.35943C3.90853 3.89776 2.11925 6.08427 1.06265 8.64243C0.00604863 11.2006 -0.270406 14.0155 0.268244 16.7313C0.806893 19.447 2.13645 21.9416 4.08879 23.8995C6.04113 25.8574 8.52856 27.1908 11.2365 27.731C13.9445 28.2712 16.7514 27.9939 19.3023 26.9343C21.8531 25.8747 24.0334 24.0803 25.5673 21.778C27.1012 19.4757 27.92 16.7689 27.92 14C27.916 10.2882 26.444 6.72954 23.8268 4.10489C21.2097 1.48024 17.6612 0.00397056 13.96 0ZM20.94 15H14.9571V21C14.9571 21.2652 14.8521 21.5196 14.6651 21.7071C14.4781 21.8946 14.2245 22 13.96 22C13.6955 22 13.4419 21.8946 13.2549 21.7071C13.0679 21.5196 12.9629 21.2652 12.9629 21V15H6.98C6.71554 15 6.46192 14.8946 6.27491 14.7071C6.08791 14.5196 5.98286 14.2652 5.98286 14C5.98286 13.7348 6.08791 13.4804 6.27491 13.2929C6.46192 13.1054 6.71554 13 6.98 13H12.9629V7C12.9629 6.73478 13.0679 6.48043 13.2549 6.29289C13.4419 6.10536 13.6955 6 13.96 6C14.2245 6 14.4781 6.10536 14.6651 6.29289C14.8521 6.48043 14.9571 6.73478 14.9571 7V13H20.94C21.2044 13 21.4581 13.1054 21.6451 13.2929C21.8321 13.4804 21.9371 13.7348 21.9371 14C21.9371 14.2652 21.8321 14.5196 21.6451 14.7071C21.4581 14.8946 21.2044 15 20.94 15Z" fill="#00C9A5"/>
</svg>
