<svg width="34" height="28" viewBox="0 0 34 28" fill="none" xmlns="http://www.w3.org/2000/svg">
<path d="M10.0022 7.02653L8 8.67329L22.9978 21L25 19.3544C23.8752 18.4287 9.19148 6.36141 10.0022 7.02653Z" fill="#00C9A5"/>
<path d="M0.585915 15.3977C-0.195305 16.0091 -0.195305 17.0005 0.585915 17.6119L1.57753 18.3879L6.30018 14.6919C6.51645 14.5226 6.86807 14.5226 7.08434 14.6919C7.30061 14.8612 7.30061 15.1363 7.08434 15.3056L2.36168 19.0016L4.88338 20.9751L8.14363 18.4236C8.3599 18.2543 8.71152 18.2543 8.92779 18.4236C9.14406 18.5928 9.14406 18.868 8.92779 19.0373L5.66754 21.5888L8.19071 23.5646L12.9134 19.8686C13.1296 19.6993 13.4813 19.6993 13.6975 19.8686C13.9138 20.0378 13.9138 20.313 13.6975 20.4823L8.97487 24.1783L11.4966 26.1518L14.7568 23.6003C14.9731 23.431 15.3247 23.431 15.541 23.6003C16.2295 24.1391 14.8583 24.5456 12.2807 26.7654L13.2723 27.5415C14.0536 28.1528 15.3203 28.1528 16.1015 27.5415L23 22.1426L7.48293 10L0.585915 15.3977Z" fill="#00C9A5"/>
<path d="M32.7443 5.79186C34.4186 4.46584 34.4186 2.3188 32.7443 0.992748C31.0565 -0.332097 28.3621 -0.329735 26.6774 0.992748C26.0411 1.49667 20.8331 5.62138 20.107 6.19643C19.3782 6.77367 18.2819 6.92154 17.3514 6.58323L13.837 5.28085C12.9065 4.94136 11.8102 5.09632 11.0813 5.66765L10 6.52406L25.7527 19L26.834 18.1436C27.5629 17.5723 27.7571 16.6981 27.3224 15.9612L25.6855 13.1778C25.2494 12.4409 25.445 11.5726 26.1664 10.9954L32.7443 5.79186ZM28.5307 2.50352C29.1685 1.99842 30.1976 1.99842 30.8278 2.50352C31.4656 3.0027 31.4656 3.81771 30.8278 4.32282C30.1976 4.82199 29.1685 4.82199 28.5307 4.32282C27.9004 3.81771 27.9004 3.0027 28.5307 2.50352Z" fill="#00C9A5"/>
</svg>
